<svg width="100" height="100" fill="none" xmlns="http://www.w3.org/2000/svg"><path d="M90 101c0 24.853-20.147 45-45 45S0 125.853 0 101s20.147-45 45-45 45 20.147 45 45Z" fill="url(#a)"/><path fill-rule="evenodd" clip-rule="evenodd" d="M45 143c23.196 0 42-18.804 42-42S68.196 59 45 59 3 77.804 3 101s18.804 42 42 42Zm0 3c24.853 0 45-20.147 45-45S69.853 56 45 56 0 76.147 0 101s20.147 45 45 45ZM87 47c23.196 0 42-18.804 42-42s-18.804-42-42-42S45-18.196 45 5s18.804 42 42 42Zm0 3c24.853 0 45-20.147 45-45s-20.147-45-45-45S42-19.853 42 5s20.147 45 45 45Z" fill="#56AAF7"/><path d="M132 5c0 24.853-20.147 45-45 45S42 29.853 42 5s20.147-45 45-45 45 20.147 45 45Z" fill="url(#b)"/><defs><radialGradient id="a" cx="0" cy="0" r="1" gradientUnits="userSpaceOnUse" gradientTransform="matrix(0 45 -45 0 45 101)"><stop stop-color="#56AAF7" stop-opacity=".21"/><stop offset="1" stop-color="#56AAF7" stop-opacity="0"/></radialGradient><radialGradient id="b" cx="0" cy="0" r="1" gradientUnits="userSpaceOnUse" gradientTransform="matrix(0 45 -45 0 87 5)"><stop stop-color="#56AAF7" stop-opacity=".21"/><stop offset="1" stop-color="#56AAF7" stop-opacity="0"/></radialGradient></defs></svg>