<svg width="100" height="100" fill="none" xmlns="http://www.w3.org/2000/svg"><path d="M70 102c0 19.33-15.67 35-35 35S0 121.33 0 102s15.67-35 35-35 35 15.67 35 35Z" fill="url(#a)"/><path fill-rule="evenodd" clip-rule="evenodd" d="M35 134c17.673 0 32-14.327 32-32 0-17.673-14.327-32-32-32-17.673 0-32 14.327-32 32 0 17.673 14.327 32 32 32Zm0 3c19.33 0 35-15.67 35-35S54.33 67 35 67 0 82.67 0 102s15.67 35 35 35Z" fill="#56AAF7"/><path fill-rule="evenodd" clip-rule="evenodd" d="M50.541 65.347c-.166-4.093 1.227-8.08 3.812-11.325 2.573-3.232 6.19-5.554 10.106-6.151 3.737-.57 8.143-.004 11.175 2.606a1.57 1.57 0 0 1 .203 2.152 1.433 1.433 0 0 1-2.072.194c-2.142-1.844-5.576-2.43-8.858-1.929-3.104.474-6.1 2.348-8.28 5.084-2.168 2.722-3.278 5.986-3.145 9.263.073 1.803.242 3.62.676 5.221.433 1.601 1.098 2.866 2.076 3.709a1.57 1.57 0 0 1 .203 2.151 1.433 1.433 0 0 1-2.072.195c-1.609-1.385-2.514-3.302-3.04-5.248-.527-1.945-.708-4.04-.784-5.922Z" fill="#56AAF7"/><path fill-rule="evenodd" clip-rule="evenodd" d="M95 57c17.673 0 32-14.327 32-32 0-17.673-14.327-32-32-32C77.327-7 63 7.327 63 25c0 17.673 14.327 32 32 32Zm0 3c19.33 0 35-15.67 35-35s-15.67-35-35-35S60 5.67 60 25s15.67 35 35 35Z" fill="#56AAF7"/><path d="M130 25c0 19.33-15.67 35-35 35S60 44.33 60 25s15.67-35 35-35 35 15.67 35 35Z" fill="url(#b)"/><defs><radialGradient id="a" cx="0" cy="0" r="1" gradientUnits="userSpaceOnUse" gradientTransform="matrix(0 35 -35 0 35 102)"><stop stop-color="#56AAF7" stop-opacity=".21"/><stop offset="1" stop-color="#56AAF7" stop-opacity="0"/></radialGradient><radialGradient id="b" cx="0" cy="0" r="1" gradientUnits="userSpaceOnUse" gradientTransform="matrix(0 35 -35 0 95 25)"><stop stop-color="#56AAF7" stop-opacity=".21"/><stop offset="1" stop-color="#56AAF7" stop-opacity="0"/></radialGradient></defs></svg>